<svg xmlns="http://www.w3.org/2000/svg" xmlns:xlink="http://www.w3.org/1999/xlink" viewBox="0 0 50 50" version="1.1" fill="#324e7b" id="svg_icon.primary" x="64" y="56" width="32" height="32"><g id="surface1"><path style=" " d="M 27.875 -0.03125 C 27.3125 -0.0117188 26.753906 0.15625 26.3125 0.5625 C 26.300781 0.574219 26.292969 0.582031 26.28125 0.59375 C 25.90625 0.96875 25.398438 1.617188 24.6875 2.53125 C 23.976563 3.445313 23.152344 4.566406 22.3125 5.6875 C 20.632813 7.929688 19.035156 10.085938 18.65625 10.65625 C 18.566406 10.796875 18.511719 10.957031 18.5 11.125 C 18.339844 11.523438 18.292969 11.96875 18.34375 12.34375 C 18.414063 12.839844 18.613281 13.332031 18.84375 13.84375 C 18.453125 14.367188 18.425781 14.390625 18 14.96875 C 17.210938 16.03125 16.410156 17.113281 15.78125 17.96875 C 15.382813 18.511719 15.21875 18.722656 15 19.03125 C 14.886719 19.09375 14.785156 19.183594 14.6875 19.28125 C 14.640625 19.328125 14.597656 19.382813 14.5625 19.4375 C 14.277344 19.863281 14.25 20.359375 14.3125 20.75 C 14.347656 20.96875 14.417969 21.175781 14.5 21.375 C 14.109375 21.988281 14.003906 22.148438 13.5 22.9375 C 12.957031 23.789063 12.417969 24.65625 12 25.3125 C 11.804688 25.617188 11.628906 25.863281 11.5 26.0625 C 11.449219 26.097656 11.390625 26.140625 11.34375 26.1875 C 11.0625 26.46875 10.96875 26.84375 10.96875 27.125 C 10.96875 27.40625 11.039063 27.660156 11.125 27.875 C 11.296875 28.300781 11.582031 28.675781 11.9375 29.03125 C 12.292969 29.386719 12.636719 29.640625 13.0625 29.8125 C 13.277344 29.898438 13.53125 29.96875 13.8125 29.96875 C 14.023438 29.96875 14.292969 29.925781 14.53125 29.78125 C 14.554688 29.761719 14.574219 29.742188 14.59375 29.71875 L 14.65625 29.6875 C 14.691406 29.660156 14.71875 29.625 14.75 29.59375 L 19.4375 26.25 C 19.660156 26.328125 19.871094 26.382813 20.09375 26.40625 C 20.222656 26.417969 20.363281 26.417969 20.5 26.40625 C 20.667969 26.4375 20.839844 26.425781 21 26.375 L 21 28.71875 L 10.15625 45.46875 C 9.964844 45.777344 9.953125 46.164063 10.128906 46.484375 C 10.304688 46.800781 10.636719 47 11 47 L 14.6875 47 C 15.03125 47 15.347656 46.820313 15.53125 46.53125 L 21 38 L 21 49 C 21 49.550781 21.449219 50 22 50 L 25 50 C 25.550781 50 26 49.550781 26 49 L 26 38 L 31.46875 46.53125 C 31.652344 46.820313 31.96875 47 32.3125 47 L 36 47 C 36.363281 47 36.695313 46.800781 36.871094 46.484375 C 37.046875 46.164063 37.035156 45.777344 36.84375 45.46875 L 26 28.71875 L 26 22.75 C 26.371094 22.476563 26.683594 22.230469 27.03125 21.96875 C 27.539063 22.183594 28.027344 22.355469 28.5 22.40625 C 29.117188 22.476563 29.789063 22.429688 30.3125 21.90625 C 30.335938 21.882813 30.355469 21.867188 30.375 21.84375 C 30.785156 21.59375 31.234375 21.269531 31.90625 20.78125 C 32.8125 20.125 33.945313 19.285156 35.0625 18.4375 C 36.179688 17.589844 37.28125 16.71875 38.1875 16 C 39.09375 15.28125 39.730469 14.769531 40.09375 14.40625 C 40.664063 13.835938 40.777344 13.039063 40.6875 12.3125 C 40.597656 11.585938 40.339844 10.816406 39.9375 10 C 39.132813 8.367188 37.792969 6.53125 36.03125 4.71875 C 36.019531 4.707031 36.011719 4.699219 36 4.6875 C 34.234375 2.921875 32.417969 1.554688 30.78125 0.75 C 29.960938 0.347656 29.175781 0.0859375 28.4375 0 C 28.253906 -0.0234375 28.0625 -0.0390625 27.875 -0.03125 Z M 27.8125 2 C 27.894531 1.988281 28.019531 1.976563 28.21875 2 C 28.617188 2.046875 29.195313 2.226563 29.875 2.5625 C 31.238281 3.234375 32.960938 4.460938 34.59375 6.09375 C 36.234375 7.78125 37.453125 9.539063 38.125 10.90625 C 38.460938 11.589844 38.671875 12.179688 38.71875 12.5625 C 38.765625 12.945313 38.667969 13.019531 38.6875 13 C 38.550781 13.136719 37.828125 13.734375 36.9375 14.4375 C 36.046875 15.140625 34.953125 16.003906 33.84375 16.84375 C 32.734375 17.683594 31.636719 18.515625 30.75 19.15625 C 30.699219 19.191406 30.691406 19.195313 30.65625 19.21875 C 30.597656 19.042969 30.484375 18.867188 30.40625 18.6875 C 30.40625 18.667969 30.40625 18.644531 30.40625 18.625 C 30.402344 18.617188 30.410156 18.601563 30.40625 18.59375 C 30.382813 18.527344 30.351563 18.464844 30.3125 18.40625 C 30.292969 18.363281 30.273438 18.320313 30.25 18.28125 C 30.238281 18.269531 30.230469 18.261719 30.21875 18.25 C 30.203125 18.21875 30.203125 18.1875 30.1875 18.15625 C 29.507813 16.835938 28.363281 15.363281 26.90625 13.90625 C 25.449219 12.449219 23.976563 11.304688 22.65625 10.625 C 22.605469 10.597656 22.550781 10.589844 22.5 10.5625 C 22.46875 10.539063 22.4375 10.519531 22.40625 10.5 C 22.386719 10.488281 22.363281 10.480469 22.34375 10.46875 C 22.253906 10.421875 22.160156 10.390625 22.0625 10.375 C 21.882813 10.300781 21.707031 10.210938 21.53125 10.15625 C 22.214844 9.210938 22.785156 8.371094 23.90625 6.875 C 24.742188 5.757813 25.585938 4.648438 26.28125 3.75 C 26.964844 2.871094 27.546875 2.175781 27.6875 2.03125 C 27.691406 2.027344 27.730469 2.011719 27.8125 2 Z M 22.1875 12.6875 C 23.167969 13.265625 24.347656 14.160156 25.5 15.3125 C 26.679688 16.492188 27.578125 17.671875 28.15625 18.65625 C 27.929688 18.835938 27.671875 19.03125 27.34375 19.28125 C 27.125 19.445313 26.8125 19.691406 26.5625 19.875 C 26.554688 19.878906 26.539063 19.871094 26.53125 19.875 C 26.355469 19.945313 26.203125 20.066406 26.09375 20.21875 C 25.5625 20.609375 25.074219 20.953125 24.5 21.375 C 23.46875 22.128906 22.433594 22.878906 21.625 23.46875 C 21.550781 23.523438 21.539063 23.511719 21.46875 23.5625 C 21.453125 23.53125 21.453125 23.5 21.4375 23.46875 C 21.039063 22.707031 20.398438 21.898438 19.59375 21.09375 C 18.800781 20.300781 18.03125 19.679688 17.28125 19.28125 C 17.328125 19.214844 17.324219 19.222656 17.375 19.15625 C 18 18.304688 18.804688 17.21875 19.59375 16.15625 C 20.910156 14.378906 21.804688 13.203125 22.1875 12.6875 Z M 16.84375 21.40625 C 17.25 21.671875 17.691406 22.003906 18.1875 22.5 C 18.703125 23.015625 19.042969 23.484375 19.3125 23.90625 L 19.03125 24.09375 C 18.789063 24.152344 18.578125 24.296875 18.4375 24.5 L 14.59375 27.25 C 14.476563 27.082031 14.34375 26.90625 14.1875 26.75 C 14.03125 26.59375 13.851563 26.496094 13.6875 26.375 C 14.105469 25.71875 14.644531 24.847656 15.1875 24 C 16.023438 22.695313 16.507813 21.933594 16.84375 21.40625 Z M 24 24.21875 L 24 28.78125 C 23.972656 28.914063 23.972656 29.054688 24 29.1875 L 24 34.28125 C 23.957031 34.445313 23.957031 34.617188 24 34.78125 L 24 48 L 23 48 L 23 34.875 C 23.003906 34.832031 23.003906 34.792969 23 34.75 C 23.039063 34.597656 23.039063 34.433594 23 34.28125 L 23 29.15625 C 23.011719 29.0625 23.011719 28.96875 23 28.875 L 23 25 C 23 24.988281 23 24.980469 23 24.96875 C 23.292969 24.753906 23.664063 24.464844 24 24.21875 Z M 21 32.375 L 21 34.3125 L 14.15625 45 L 12.84375 45 Z M 26 32.375 L 34.15625 45 L 32.84375 45 L 26 34.3125 Z "></path></g></svg>